<svg width="203" height="60" viewBox="0 0 203 60" fill="none" xmlns="http://www.w3.org/2000/svg">
<g clip-path="url(#clip0_1_84)">
<path fill-rule="evenodd" clip-rule="evenodd" d="M22.0719 45.2466L17.5142 10.1333L26.6296 35.6729L24.9351 44.952C25.2273 44.9716 25.5292 45.0207 25.8408 45.0993C27.7106 45.4823 29.4344 46.6016 30.5446 48.3691C31.684 50.1072 32.0054 52.1394 31.5964 54.0251C31.1874 55.9103 30.0771 57.6483 28.3534 58.797C26.6296 59.9162 24.6138 60.2404 22.7147 59.8282C20.8449 59.4449 19.1211 58.3257 18.0109 56.5877C16.8715 54.8201 16.5793 52.7878 16.9591 50.9022C17.3681 49.017 18.4784 47.2792 20.2021 46.1303C20.7865 45.7474 21.4292 45.4528 22.0719 45.2466ZM20.1437 55.1738C20.8741 56.352 22.0135 57.0885 23.2406 57.3536C24.4968 57.6188 25.8408 57.4127 26.9803 56.6467C28.1197 55.9103 28.8501 54.7615 29.113 53.4948C29.376 52.2575 29.1715 50.9022 28.4118 49.7535C27.6815 48.6048 26.542 47.8389 25.3149 47.5737C24.0586 47.3086 22.7147 47.5443 21.5753 48.2807C20.4358 49.0465 19.7054 50.1953 19.4425 51.4325C19.1795 52.6698 19.3841 54.0251 20.1437 55.1738Z" fill="#575756"/>
<path fill-rule="evenodd" clip-rule="evenodd" d="M21.0786 0.412598C22.8608 7.24675 16.0534 13.7863 9.74278 18.2638C8.95396 17.5568 7.98983 16.6731 6.70431 15.5243C9.01237 13.4033 11.262 11.8126 13.4824 9.78005C17.5143 6.15678 18.8874 5.12579 21.0786 0.412598ZM0.159912 26.8948C0.189128 22.4762 2.02976 20.0312 5.62332 16.5553C6.87962 17.5863 7.84375 18.3816 8.63257 19.0297C4.62997 21.946 3.72427 23.5367 0.159912 26.8948Z" fill="#CEAA61"/>
<path fill-rule="evenodd" clip-rule="evenodd" d="M26.2498 0C29.5512 10.5752 23.5912 16.7908 15.2938 23.3303C13.424 21.5628 12.8981 21.0621 11.4081 19.707C19.1795 12.8729 23.4743 10.7814 26.2498 0ZM8.60336 28.4265C2.55563 33.1102 1.88366 37.5582 1.44542 40.828C-2.67404 32.7567 2.64328 27.7784 9.45063 21.4745C9.8012 21.1603 10.1421 20.846 10.4732 20.5319C12.1093 21.8869 12.6644 22.2993 14.6511 23.8311C12.7228 25.3039 10.6777 26.8357 8.60336 28.4265Z" fill="#AA8E5A"/>
<path fill-rule="evenodd" clip-rule="evenodd" d="M30.1648 5.74414C31.0997 9.16124 31.421 13.3147 30.0771 16.8496C28.1781 21.8869 24.3508 25.2155 20.4943 28.2791C18.6829 26.5706 17.3682 25.3039 16.3748 24.3318C16.628 24.1747 16.9007 24.0078 17.1928 23.831C27.8859 16.9969 28.7332 11.6357 30.1648 5.74414ZM20.465 28.2791C18.4199 26.7179 16.9299 25.569 15.7905 24.7147C7.90216 29.8698 3.13993 34.2295 3.63661 42.9195C3.92877 48.2807 7.2886 53.6419 12.5475 56.7643C11.3204 54.2898 9.62588 48.2807 9.33372 45.5706C8.42804 37.0574 14.4758 33.0217 20.465 28.2791Z" fill="#8B7556"/>
<path fill-rule="evenodd" clip-rule="evenodd" d="M6.17847 17.0557L33.9044 38.8541C34.4011 38.3829 34.9562 37.9705 35.599 37.6759C37.4688 36.7332 39.5139 36.6448 41.3253 37.2635C43.1367 37.882 44.7144 39.1782 45.6493 41.034C46.555 42.9193 46.6427 44.9813 46.0291 46.8077C45.4448 48.6341 44.1301 50.2246 42.2895 51.1672C40.4488 52.0808 38.4037 52.1688 36.5632 51.5504C34.7517 50.9611 33.1741 49.6358 32.2683 47.7798C31.3334 45.9239 31.2458 43.8619 31.8593 42.0356C31.9567 41.741 32.0638 41.4562 32.1807 41.1813L23.3867 37.941L6.17847 17.0557ZM40.5073 39.679C39.3095 39.2666 37.9655 39.3255 36.7384 39.9441C35.5113 40.5627 34.6641 41.6231 34.255 42.8309C33.846 44.0387 33.9045 45.3937 34.518 46.6309C35.1315 47.8681 36.1833 48.7222 37.3811 49.135C38.579 49.5472 39.923 49.4882 41.15 48.8698C42.3771 48.2511 43.2536 47.1906 43.6334 45.9828C44.0424 44.7751 43.984 43.4201 43.3705 42.1828C42.7569 40.9456 41.7051 40.0914 40.5073 39.679Z" fill="#575756"/>
<path d="M20.0561 31.6669C20.0561 31.0189 20.582 30.5181 21.2248 30.5181C21.8675 30.5181 22.3934 31.0189 22.3934 31.6669C22.3934 32.315 21.8675 32.8452 21.2248 32.8452C20.582 32.8452 20.0561 32.315 20.0561 31.6669Z" fill="white"/>
<path d="M47.782 41.653C48.1912 41.6235 48.5415 42.0065 48.5708 42.5072C48.5708 43.008 48.2204 43.4204 47.8113 43.4499L44.6851 43.4204C44.2469 43.4204 43.8963 43.0375 43.8963 42.5367C43.8671 42.0359 44.2177 41.6235 44.6267 41.6235L47.782 41.653Z" fill="#575756"/>
<path d="M76.2382 30.8143C78.1819 31.1017 79.7108 31.8464 80.8252 33.0483C81.9395 34.2242 82.4967 35.805 82.4967 37.7908C82.4967 40.4037 81.5508 42.3242 79.659 43.5522C77.7931 44.7803 75.0591 45.3943 71.4569 45.3943H67.4142C66.6627 45.3943 66.0537 45.1983 65.5872 44.8064C65.1467 44.3883 64.9264 43.8266 64.9264 43.1211V23.2892C64.9264 22.5837 64.8746 21.7998 64.7709 20.9375C64.6672 20.0492 64.4988 19.2783 64.2656 18.6251C65.6909 17.9458 67.8418 17.6061 70.7184 17.6061C74.1391 17.6061 76.7306 18.1417 78.4928 19.213C80.2551 20.2582 81.1362 21.9304 81.1362 24.2298C81.1362 25.8498 80.7086 27.2477 79.8534 28.4235C78.9982 29.5732 77.7931 30.3701 76.2382 30.8143ZM70.6795 19.2522C69.9539 19.2522 69.4745 19.2653 69.2412 19.2914V30.1872H71.7291C73.2839 30.2133 74.476 29.73 75.3053 28.7371C76.1605 27.718 76.5881 26.3201 76.5881 24.5433C76.5881 22.7927 76.1216 21.4732 75.1887 20.5848C74.2817 19.6964 72.7786 19.2522 70.6795 19.2522ZM71.4181 43.709C75.6681 43.709 77.7931 41.7624 77.7931 37.8692C77.7931 35.5959 77.2489 34.0282 76.1605 33.1659C75.0721 32.2775 73.5042 31.8333 71.4569 31.8333H69.2412V43.709H71.4181ZM106.785 42.69C107.096 43.6567 107.471 44.3883 107.912 44.8848C107.316 45.538 106.474 45.8646 105.385 45.8646C104.686 45.8646 104.103 45.7209 103.636 45.4335C103.17 45.1461 102.872 44.728 102.742 44.1793L100.759 37.1245H91.3913L89.8364 42.7683C89.6809 43.4477 89.6031 43.9703 89.6031 44.3361C89.6031 44.8064 89.7068 45.1722 89.9141 45.4335C89.1626 45.7209 88.3851 45.8646 87.5818 45.8646C86.7525 45.8646 86.1435 45.7209 85.7548 45.4335C85.366 45.1722 85.1717 44.728 85.1717 44.1009C85.1717 43.4477 85.3272 42.6508 85.6382 41.7101L93.4904 18.2332C94.6565 17.789 95.8616 17.5669 97.1055 17.5669C98.4531 17.5669 99.2564 18.0633 99.5156 19.0562L106.785 42.69ZM100.06 34.6945L95.9782 20.2712L92.0521 34.6945H100.06ZM131.248 42.1021C131.456 42.5462 131.559 42.9643 131.559 43.3563C131.559 44.1663 131.248 44.7933 130.626 45.2375C130.03 45.6556 129.408 45.8646 128.761 45.8646C127.879 45.8646 127.154 45.6817 126.584 45.3159C126.039 44.924 125.573 44.4014 125.184 43.7482C124.796 43.0688 124.368 42.1282 123.901 40.9262L122.463 37.1637C122.126 36.3014 121.802 35.6221 121.491 35.1256C121.206 34.6292 120.779 34.2111 120.209 33.8714C119.664 33.5317 118.926 33.3619 117.993 33.3619L115.972 33.3227V40.4951C115.972 42.4025 116.179 43.8788 116.593 44.924C115.868 45.5772 115.052 45.9038 114.145 45.9038C113.393 45.9038 112.784 45.7079 112.318 45.3159C111.877 44.8979 111.657 44.3361 111.657 43.6306V23.2892C111.657 22.5837 111.605 21.7998 111.501 20.9375C111.398 20.0492 111.229 19.2783 110.996 18.6251C112.421 17.9458 114.611 17.6061 117.565 17.6061C121.323 17.6061 124.122 18.1809 125.962 19.3306C127.828 20.4542 128.761 22.2962 128.761 24.8569C128.761 26.7643 128.216 28.3712 127.128 29.6777C126.039 30.9842 124.549 31.8856 122.658 32.3821C123.565 32.6172 124.303 33.0353 124.873 33.6362C125.443 34.2111 125.975 34.9819 126.467 35.9487L128.216 40.064C128.553 40.9262 128.877 41.5533 129.188 41.9453C129.525 42.3111 129.875 42.5071 130.238 42.5332C130.652 42.5332 130.989 42.3895 131.248 42.1021ZM115.972 31.6766C116.412 31.7027 117.151 31.7158 118.187 31.7158C120.001 31.6635 121.427 31.0364 122.463 29.8345C123.526 28.6325 124.057 27.0779 124.057 25.1704C124.057 21.225 121.997 19.2522 117.876 19.2522C116.917 19.2522 116.283 19.2653 115.972 19.2914V31.6766ZM146.884 30.8143C148.828 31.1017 150.357 31.8464 151.471 33.0483C152.585 34.2242 153.143 35.805 153.143 37.7908C153.143 40.4037 152.197 42.3242 150.305 43.5522C148.439 44.7803 145.705 45.3943 142.103 45.3943H138.06C137.309 45.3943 136.7 45.1983 136.233 44.8064C135.793 44.3883 135.572 43.8266 135.572 43.1211V23.2892C135.572 22.5837 135.52 21.7998 135.417 20.9375C135.313 20.0492 135.145 19.2783 134.911 18.6251C136.337 17.9458 138.488 17.6061 141.364 17.6061C144.785 17.6061 147.377 18.1417 149.139 19.213C150.901 20.2582 151.782 21.9304 151.782 24.2298C151.782 25.8498 151.354 27.2477 150.499 28.4235C149.644 29.5732 148.439 30.3701 146.884 30.8143ZM141.325 19.2522C140.6 19.2522 140.12 19.2653 139.887 19.2914V30.1872H142.375C143.93 30.2133 145.122 29.73 145.951 28.7371C146.806 27.718 147.234 26.3201 147.234 24.5433C147.234 22.7927 146.768 21.4732 145.835 20.5848C144.928 19.6964 143.425 19.2522 141.325 19.2522ZM142.064 43.709C146.314 43.709 148.439 41.7624 148.439 37.8692C148.439 35.5959 147.895 34.0282 146.806 33.1659C145.718 32.2775 144.15 31.8333 142.103 31.8333H139.887V43.709H142.064ZM173.582 41.5142C173.841 41.6709 174.036 41.9453 174.165 42.3372C174.321 42.7292 174.399 43.1603 174.399 43.6306C174.399 44.1271 174.308 44.5451 174.126 44.8848C173.945 45.2245 173.686 45.3943 173.349 45.3943H160.988C160.262 45.3943 159.666 45.1983 159.199 44.8064C158.759 44.3883 158.539 43.8266 158.539 43.1211L158.5 23.7987C158.5 21.8651 158.292 20.3496 157.878 19.2522C158.37 18.808 158.876 18.5206 159.394 18.39C159.938 18.2332 160.703 18.1548 161.687 18.1548H173.194C173.66 18.1548 173.893 18.5467 173.893 19.3306C173.893 19.8532 173.777 20.3888 173.543 20.9375C173.336 21.4601 173.064 21.7998 172.727 21.9566C169.436 20.9375 166.132 20.3888 162.815 20.3104V29.9912H171.678C171.781 30.3048 171.833 30.6837 171.833 31.1279C171.833 31.4414 171.781 31.8595 171.678 32.3821H162.853V43.2387C164.538 43.2125 166.404 43.0296 168.451 42.69C170.498 42.3242 172.209 41.9322 173.582 41.5142ZM198.457 40.9262C198.845 41.083 199.169 41.3443 199.429 41.7101C199.714 42.0759 199.856 42.494 199.856 42.9643C199.856 43.7221 199.519 44.4014 198.845 45.0024C198.172 45.5772 197.291 45.8646 196.202 45.8646C195.088 45.8646 194.181 45.538 193.481 44.8848C192.781 44.2316 192.069 43.1995 191.343 41.7885L187.728 34.8512L181.664 44.5321C181.405 44.9763 181.107 45.3029 180.77 45.5119C180.433 45.7471 180.005 45.8646 179.487 45.8646C178.787 45.8646 178.256 45.6556 177.893 45.2375C177.53 44.7933 177.31 44.114 177.232 43.1995C177.906 42.9904 178.502 42.6508 179.021 42.1804C179.539 41.7101 180.109 41.0308 180.731 40.1424L186.29 32.1077L181.47 23.054C181.21 22.5575 180.951 22.2048 180.692 21.9958C180.459 21.7606 180.187 21.643 179.876 21.643C179.565 21.643 179.293 21.7606 179.059 21.9958C178.852 22.2048 178.735 22.453 178.71 22.7404C178.295 22.5837 177.958 22.3224 177.699 21.9566C177.466 21.5908 177.349 21.1596 177.349 20.6632C177.349 19.8793 177.634 19.213 178.204 18.6643C178.774 18.0895 179.643 17.8021 180.809 17.8021C181.975 17.8021 182.921 18.1287 183.646 18.7819C184.398 19.4351 185.124 20.4672 185.823 21.8782L189.166 28.3843L194.608 19.0562C194.842 18.6382 195.127 18.3246 195.464 18.1156C195.8 17.8804 196.228 17.7629 196.746 17.7629C197.446 17.7629 197.977 17.9719 198.34 18.39C198.703 18.808 198.936 19.4743 199.04 20.3888C198.34 20.624 197.705 21.0029 197.135 21.5254C196.591 22.0219 196.06 22.6621 195.541 23.4459L190.449 30.8143L195.658 40.6127C196.176 41.5533 196.733 42.0237 197.329 42.0237C197.614 42.0237 197.861 41.9192 198.068 41.7101C198.301 41.475 198.431 41.2137 198.457 40.9262Z" fill="#CEA36E"/>
</g>
<defs>
<clipPath id="clip0_1_84">
<rect width="203" height="60" fill="white"/>
</clipPath>
</defs>
</svg>
