<svg width="37" height="38" viewBox="0 0 37 38" fill="none" xmlns="http://www.w3.org/2000/svg">
<g clip-path="url(#clip0_16_36)">
<path d="M14.6255 15.4936C14.6255 14.0462 13.5048 13.7026 12.2604 13.7026H9.02203V17.367H12.5139C13.7491 17.367 14.6255 16.8265 14.6255 15.4936Z" fill="#CEA36E"/>
<path d="M25.4461 17.3916C23.9498 17.3916 22.9513 18.3245 22.8536 19.8208H27.941C27.802 18.3077 27.0172 17.3916 25.4461 17.3916Z" fill="#CEA36E"/>
<path d="M12.7765 19.9766H9.0144V24.3036H12.7032C14.1109 24.3036 15.2561 23.8043 15.2561 22.2256C15.2545 20.6148 14.2972 19.9842 12.7765 19.9766Z" fill="#CEA36E"/>
<path d="M30.1549 1.33545H6.48902C2.90097 1.33545 0 4.23642 0 7.82447V30.5742C0 34.1623 2.90097 37.0632 6.48902 37.0632H30.1549C33.7429 37.0632 36.6439 34.1623 36.6439 30.5742V7.82447C36.6439 4.23642 33.7429 1.33545 30.1549 1.33545ZM22.223 11.8461H28.5868V13.3913H22.223V11.8461ZM13.1765 26.9862H5.56224V11.2812H12.9643C15.6561 11.2812 17.986 12.0416 17.986 15.1655C17.986 16.7442 17.2501 17.5214 15.8424 18.1916C17.7723 18.7398 18.7052 20.4422 18.7052 22.4133C18.7067 25.6044 16.0317 26.9694 13.1765 26.9862ZM31.0572 21.7919H22.8612C22.8612 23.6073 23.8185 24.6791 25.6507 24.6791C26.5989 24.6791 27.8188 24.1722 28.1211 23.1981H30.8771C30.0266 25.8075 28.2677 27.0259 25.553 27.0259C21.9711 27.0259 19.7373 24.5967 19.7373 21.0544C19.7373 17.6359 22.0856 15.0357 25.553 15.0357C29.1105 15.0357 31.0817 17.8405 31.0817 21.2025C31.0817 21.3995 31.0649 21.6041 31.0572 21.7919Z" fill="#CEA36E"/>
</g>
<defs>
<clipPath id="clip0_16_36">
<rect width="36.6439" height="36.6439" fill="white" transform="translate(0 0.877441)"/>
</clipPath>
</defs>
</svg>
