<svg width="35" height="35" viewBox="0 0 35 35" fill="none" xmlns="http://www.w3.org/2000/svg">
<g clip-path="url(#clip0_1_383)">
<path d="M33.5417 16.0418C33.1549 16.0418 32.784 15.8881 32.5105 15.6147C32.237 15.3412 32.0833 14.9702 32.0833 14.5835C32.0802 11.4902 30.8501 8.52455 28.6628 6.33729C26.4756 4.15003 23.5099 2.91988 20.4167 2.91679C20.0299 2.91679 19.659 2.76315 19.3855 2.48966C19.112 2.21617 18.9583 1.84523 18.9583 1.45846C18.9583 1.07168 19.112 0.700751 19.3855 0.427261C19.659 0.15377 20.0299 0.000124773 20.4167 0.000124773C24.2831 0.00437085 27.99 1.54219 30.724 4.27617C33.4579 7.01016 34.9958 10.717 35 14.5835C35 14.9702 34.8464 15.3412 34.5729 15.6147C34.2994 15.8881 33.9284 16.0418 33.5417 16.0418ZM29.1667 14.5835C29.1667 12.2628 28.2448 10.0372 26.6039 8.39627C24.9629 6.75533 22.7373 5.83346 20.4167 5.83346C20.0299 5.83346 19.659 5.9871 19.3855 6.26059C19.112 6.53408 18.9583 6.90502 18.9583 7.29179C18.9583 7.67857 19.112 8.0495 19.3855 8.32299C19.659 8.59648 20.0299 8.75012 20.4167 8.75012C21.9638 8.75012 23.4475 9.36471 24.5415 10.4587C25.6354 11.5526 26.25 13.0364 26.25 14.5835C26.25 14.9702 26.4036 15.3412 26.6771 15.6147C26.9506 15.8881 27.3216 16.0418 27.7083 16.0418C28.0951 16.0418 28.466 15.8881 28.7395 15.6147C29.013 15.3412 29.1667 14.9702 29.1667 14.5835ZM32.3502 32.3226L33.6773 30.7928C34.522 29.9454 34.9963 28.7978 34.9963 27.6013C34.9963 26.4048 34.522 25.2571 33.6773 24.4097C33.6321 24.3645 30.1233 21.6651 30.1233 21.6651C29.2812 20.8635 28.1627 20.4172 27 20.4188C25.8374 20.4204 24.7201 20.8699 23.8802 21.6739L21.1006 24.016C18.8317 23.0769 16.7707 21.6989 15.0358 19.9611C13.301 18.2233 11.9266 16.1598 10.9915 13.8893L13.3248 11.1185C14.1294 10.2787 14.5794 9.16119 14.5813 7.99821C14.5832 6.83523 14.1368 5.71625 13.335 4.87388C13.335 4.87388 10.6327 1.3695 10.5875 1.32429C9.75546 0.486841 8.62733 0.0103652 7.44688 -0.002187C6.26642 -0.0147392 5.12842 0.43764 4.27875 1.25721L2.60167 2.71554C-7.30625 14.2101 14.0292 35.3808 25.9029 35.0001C27.1019 35.0071 28.2902 34.7737 29.3975 34.3139C30.5049 33.854 31.5089 33.1769 32.3502 32.3226V32.3226Z" fill="#CEA36E"/>
</g>
<defs>
<clipPath id="clip0_1_383">
<rect width="35" height="35" fill="white"/>
</clipPath>
</defs>
</svg>
