<svg width="38" height="38" viewBox="0 0 38 38" fill="none" xmlns="http://www.w3.org/2000/svg">
<g clip-path="url(#clip0_1_351)">
<path d="M37.5216 19.3107C37.5216 28.4549 30.8127 36.0356 22.0548 37.4113V24.6424H26.3132L27.1239 19.3596H22.0548V15.9318C22.0548 14.4859 22.7633 13.0782 25.0321 13.0782H27.3361V8.58016C27.3361 8.58016 25.2444 8.22288 23.2458 8.22288C19.0714 8.22288 16.3445 10.7528 16.3445 15.3318V19.358H11.7045V24.6409H16.3445V37.4097C7.58813 36.0325 0.877716 28.4534 0.877716 19.3107C0.877716 9.19242 9.08137 0.98877 19.1997 0.98877C29.318 0.98877 37.5216 9.19089 37.5216 19.3107Z" fill="#CEA36E"/>
</g>
<defs>
<clipPath id="clip0_1_351">
<rect width="36.6439" height="36.6439" fill="white" transform="translate(0.877716 0.877441)"/>
</clipPath>
</defs>
</svg>
