<svg width="35" height="35" viewBox="0 0 35 35" fill="none" xmlns="http://www.w3.org/2000/svg">
<g clip-path="url(#clip0_16_61)">
<path d="M34.9329 8.08203L22.6567 20.3583C21.2878 21.7237 19.4334 22.4904 17.5 22.4904C15.5666 22.4904 13.7122 21.7237 12.3433 20.3583L0.0670833 8.08203C0.0466667 8.31245 0 8.52099 0 8.74995V26.2499C0.00231563 28.1831 0.771286 30.0364 2.13824 31.4034C3.50519 32.7703 5.35851 33.5393 7.29167 33.5416H27.7083C29.6415 33.5393 31.4948 32.7703 32.8618 31.4034C34.2287 30.0364 34.9977 28.1831 35 26.2499V8.74995C35 8.52099 34.9533 8.31245 34.9329 8.08203Z" fill="#CEA36E"/>
<path d="M20.5946 18.2964L33.915 4.97454C33.2697 3.90459 32.3596 3.01897 31.2725 2.4031C30.1853 1.78724 28.9578 1.46191 27.7084 1.4585H7.29169C6.04222 1.46191 4.81471 1.78724 3.72756 2.4031C2.64041 3.01897 1.7303 3.90459 1.08502 4.97454L14.4054 18.2964C15.2273 19.115 16.34 19.5746 17.5 19.5746C18.66 19.5746 19.7727 19.115 20.5946 18.2964Z" fill="#CEA36E"/>
</g>
<defs>
<clipPath id="clip0_16_61">
<rect width="35" height="35" fill="white"/>
</clipPath>
</defs>
</svg>
