<svg width="68" height="67" viewBox="0 0 68 67" fill="none" xmlns="http://www.w3.org/2000/svg">
<path fill-rule="evenodd" clip-rule="evenodd" d="M13.8535 0.752254C13.0278 1.12723 12.5216 1.6719 12.2024 2.52882L11.9639 3.16934H7.31972C2.86728 3.16934 2.67002 3.17969 2.53529 3.4195C2.33382 3.77843 2.36204 4.15431 2.60801 4.38894C2.79348 4.56563 3.42068 4.59215 7.42433 4.59215H12.0275V5.36822V6.1443H7.43572C3.15952 6.1443 2.82848 6.1606 2.61941 6.38087C2.29896 6.71847 2.33599 7.25435 2.69647 7.49506C2.95465 7.66761 3.64603 7.69645 7.51278 7.69645H12.0275V8.47253V9.2486H7.35161C2.86755 9.2486 2.67002 9.25882 2.53529 9.49876C2.33382 9.85769 2.36204 10.2336 2.60801 10.4682C2.79348 10.6449 3.42068 10.6714 7.42433 10.6714H12.0275V11.4475V12.2236H7.43572C3.08707 12.2236 2.83146 12.2366 2.60923 12.4709C2.27847 12.8193 2.37764 13.4055 2.80189 13.6091C3.05356 13.7299 4.28735 13.7723 7.58428 13.7738L12.0275 13.7757V14.5518V15.3279H7.35161C2.86755 15.3279 2.67002 15.3381 2.53529 15.578C2.32595 15.951 2.36476 16.2965 2.64302 16.5366C2.86348 16.7269 3.39897 16.7507 7.45933 16.7507H12.0275V17.5267V18.3028H7.43572C3.08707 18.3028 2.83146 18.3159 2.60923 18.5501C2.27847 18.8986 2.37764 19.4848 2.80189 19.6884C3.05356 19.8092 4.28735 19.8516 7.58428 19.853L12.0275 19.855V20.5664V21.2778L7.58428 21.2797C4.28735 21.2811 3.05356 21.3236 2.80189 21.4444C2.37764 21.648 2.27847 22.2342 2.60923 22.5826C2.83146 22.8169 3.08707 22.8299 7.43314 22.8299H12.0223L12.1088 23.1856C12.3919 24.3503 13.3925 25.2177 14.6856 25.4196C16.4867 25.7008 19.8105 25.4819 21.3679 24.9795C23.2791 24.3631 24.247 23.6311 26.9886 20.7287C27.5687 20.1146 28.454 19.3173 28.9558 18.9569C30.7046 17.7011 33.2008 16.6771 35.2587 16.3713C35.7263 16.3018 42.3669 15.8939 50.0153 15.4648C58.5673 14.985 64.1289 14.6216 64.4598 14.5211C65.4504 14.2204 65.8906 13.1347 65.4118 12.1727C64.978 11.3013 65.7887 11.3902 49.9198 10.4742C40.9459 9.95612 35.0951 9.56615 34.5488 9.44973C33.2263 9.16776 32.2191 8.80533 30.861 8.12264C29.1611 7.26819 27.6447 6.06449 26.2074 4.42878C24.7736 2.79708 23.8504 2.04209 22.5425 1.43184C20.9169 0.673094 20.2559 0.556165 17.2508 0.49602C14.6077 0.442988 14.5196 0.449714 13.8535 0.752254ZM2.21443 27.4371C1.79128 27.5614 1.34926 27.8298 0.966262 28.1948C-0.870449 29.9459 0.0468213 32.9328 2.57437 33.431C3.06455 33.5276 12.6859 33.559 34.4168 33.5352L65.5569 33.501L66.2304 33.1705C68.5899 32.0128 68.5899 28.7805 66.2304 27.6228L65.5569 27.2924L34.2133 27.2684C6.79767 27.2476 2.78764 27.2687 2.21443 27.4371ZM2.74504 35.2148C3.0716 38.2061 3.53302 40.4961 4.23498 42.6096C6.51737 49.4814 10.9904 55.2527 17.0933 59.1997L18.4569 60.0816H34.0062H49.5554L50.919 59.1997C58.0014 54.6193 62.946 47.4631 64.6538 39.3215C64.8911 38.1905 65.082 36.9123 65.2673 35.2148L65.3203 34.7298H34.0062H2.69199L2.74504 35.2148ZM43.0132 41.4092C43.9409 41.5304 44.9726 42.1714 45.4655 42.9327L45.8774 43.569L45.9166 47.2658L45.9558 50.9627L45.5774 51.6732C45.1143 52.5426 44.3094 53.1509 43.3666 53.3437C42.9075 53.4376 39.7284 53.4849 33.8884 53.4849C24.1453 53.4849 24.2273 53.4913 23.1997 52.6527C22.8818 52.3932 22.5227 51.9245 22.3518 51.5455C22.0665 50.9133 22.0568 50.7496 22.0951 47.2287L22.135 43.569L22.5455 42.9361C23.0012 42.234 23.9426 41.5993 24.7507 41.4497C25.3799 41.3331 42.1465 41.2959 43.0132 41.4092ZM24.4369 42.8783C23.3898 43.3725 23.356 43.5138 23.356 47.4057C23.356 50.601 23.3745 50.8629 23.6274 51.2714C23.7766 51.5124 24.1114 51.8179 24.3714 51.9505C24.8192 52.1788 25.3281 52.1915 34.0062 52.1915C42.6842 52.1915 43.1931 52.1788 43.641 51.9505C43.9009 51.8179 44.2357 51.5124 44.385 51.2714C44.6379 50.8629 44.6563 50.601 44.6563 47.4057C44.6563 43.5082 44.6214 43.3633 43.565 42.8758C43.0295 42.6287 42.701 42.6199 33.9972 42.62C25.2631 42.6201 24.9671 42.628 24.4369 42.8783ZM18.3413 61.9894C17.1388 62.9182 16.9795 63.1777 16.9795 64.2072C16.9795 65.2959 17.3944 65.9848 18.3023 66.4039L18.8966 66.6782H34.0062H49.1157L49.7101 66.4039C50.6135 65.9869 51.0328 65.2949 51.0328 64.2206C51.0328 63.1835 50.77 62.7493 49.6434 61.9247L48.8924 61.375H34.0146H19.1368L18.3413 61.9894Z" fill="#CEA36E"/>
</svg>
