<svg width="53" height="60" viewBox="0 0 53 60" fill="none" xmlns="http://www.w3.org/2000/svg">
<path fill-rule="evenodd" clip-rule="evenodd" d="M29.3188 1.01231C27.9401 1.43129 26.6343 2.40374 25.9163 3.54612C24.8289 5.27592 24.8247 7.62002 25.906 9.3313L26.3619 10.0529L25.7491 10.2023C24.6946 10.4597 23.7539 11.2034 23.1847 12.2298C22.9 12.7433 22.8676 12.9238 22.8669 14.0022C22.8662 15.0182 22.9075 15.2834 23.1355 15.7262C23.5681 16.5662 24.1816 17.1621 25.0209 17.5575C26.916 18.4503 29.1773 17.9258 30.3434 16.3229L30.7766 15.7276L31.0634 16.3214C31.418 17.0555 32.6896 18.3011 33.51 18.718C34.7732 19.36 36.4129 19.5469 37.7836 19.2052C38.1621 19.1109 38.4918 19.0337 38.5161 19.0337C38.5406 19.0337 38.5984 19.201 38.6446 19.4054C38.8703 20.4047 39.8287 21.5615 40.8059 22.0142C43.6076 23.312 46.8192 21.4638 46.851 18.5356C46.8618 17.537 46.6167 16.7792 46.0394 16.026C45.3283 15.0984 43.9969 14.4603 42.77 14.4591L42.2242 14.4585L42.203 13.5157C42.1442 10.8893 40.1653 8.66154 37.4566 8.17245L36.6977 8.03546L36.7994 7.61682C37.0715 6.4964 36.8414 4.94293 36.2337 3.79506C35.5779 2.55663 33.8813 1.28401 32.4716 0.97297C31.7484 0.813449 29.8972 0.836548 29.3188 1.01231ZM47.8647 1.01665C47.2225 1.23587 46.5367 1.69339 46.1808 2.14005C44.953 3.68037 45.0605 5.79588 46.4334 7.10967C47.4676 8.09938 49.1689 8.44655 50.5466 7.94901C51.4396 7.62642 52.2289 6.94408 52.6434 6.13642C53.0996 5.24745 53.1207 3.85247 52.6917 2.93639C52.3375 2.17995 51.3408 1.28618 50.5717 1.03541C49.889 0.812763 48.4902 0.803157 47.8647 1.01665ZM16.1446 5.71686C15.3 5.93447 14.6985 6.24082 13.9121 6.85386L13.254 7.36673L12.7425 7.04071C11.5524 6.28222 9.77158 5.95128 8.2877 6.2128C4.71959 6.84185 2.49316 10.5029 3.66278 13.8182L3.88874 14.4587L3.31505 14.811C2.57394 15.2662 1.42894 16.4403 0.965663 17.2203C-0.838467 20.2574 -0.0463369 24.3061 2.77183 26.452C4.33195 27.6401 6.00284 28.1423 8.03771 28.0348C9.98094 27.9322 11.6266 27.2334 12.9388 25.9537C14.4356 24.494 15.0915 22.9636 15.096 20.9205C15.0976 20.2287 15.0591 19.4913 15.0103 19.2821L14.9219 18.9014L15.5127 19.3165C15.8377 19.5448 16.4421 19.8691 16.8559 20.0372C17.5323 20.3118 17.7531 20.3426 19.0422 20.341C20.2503 20.3395 20.5841 20.2983 21.161 20.0793C21.5376 19.9363 21.8775 19.7703 21.9163 19.7102C21.955 19.6502 21.6583 19.2581 21.2569 18.8389C19.8764 17.3971 19.285 15.7981 19.3658 13.725C19.4398 11.8231 20.0371 10.4194 21.3483 9.06531L21.8659 8.53095L21.7412 7.86462C21.6357 7.30086 21.5407 7.13277 21.1241 6.77233C19.9044 5.71766 17.8397 5.28004 16.1446 5.71686ZM29.8274 20.7577C29.3266 21.0368 28.3903 21.2245 27.1852 21.287L25.8882 21.3543L24.4368 22.1401C22.2143 23.3434 20.9663 23.7164 19.1507 23.7202L18.1839 23.7221L18.0318 24.2081C17.5857 25.6336 16.4444 27.298 15.0652 28.534C13.6679 29.7861 12.1133 30.6006 10.1192 31.1255C9.08736 31.3971 6.0786 31.4035 5.09635 31.1362L4.41428 30.9506L4.29562 31.3101C3.77761 32.8801 3.53002 35.2934 3.59801 38.1085C3.64473 40.0437 3.70161 40.6394 3.91013 41.379C4.24089 42.5524 4.82964 43.8467 5.42365 44.7063C6.22749 45.8695 8.46766 47.9648 8.90752 47.9648C8.97145 47.9648 8.98136 47.6902 8.93142 47.3072C8.79412 46.2554 8.813 42.8863 8.95986 42.2242C9.39147 40.2793 11.0587 38.7053 13.0698 38.3442C16.2824 37.7673 17.954 36.9719 19.7215 35.1787C21.1499 33.7298 21.9878 32.0318 22.384 29.7828C22.7413 27.7551 23.6995 26.4417 25.4035 25.6442L26.2119 25.2659L28.4131 25.2279C30.0705 25.1993 30.9104 25.2374 31.813 25.3818C38.1277 26.3923 43.0504 30.9028 44.4485 36.9591C44.6779 37.9532 44.7111 38.5106 44.7563 42.1328C44.7842 44.3655 44.7603 46.5912 44.7035 47.0785C44.6376 47.6414 44.642 47.9648 44.7154 47.9648C44.9194 47.9648 46.0404 47.0778 46.8466 46.2786C48.257 44.8807 49.2475 43.1529 49.7637 41.19C50.0206 40.2133 50.1253 36.3794 49.9416 34.6782C49.6757 32.2168 49.0068 29.8895 47.9431 27.7245C47.3567 26.5311 46.3879 24.98 46.2287 24.98C46.1731 24.98 45.8823 25.0806 45.5826 25.2036C44.897 25.4848 43.4207 25.7805 42.7022 25.7805C41.7413 25.7805 40.3457 25.4397 39.2966 24.9489C38.5147 24.5831 38.0702 24.2727 37.366 23.601L36.4512 22.7283L35.5736 22.656C33.926 22.5203 32.1759 21.9087 30.9293 21.033C30.3299 20.612 30.1635 20.5704 29.8274 20.7577ZM26.7996 28.6294C26.5428 28.7353 25.9132 29.3877 25.9132 29.5479C25.9132 29.5977 25.8299 30.0952 25.7282 30.6536C24.7952 35.7738 20.8757 39.8928 15.6964 41.1961C15.1706 41.3285 14.4552 41.4717 14.1066 41.5144C13.3432 41.608 12.785 41.9411 12.4916 42.4781C12.2957 42.8369 12.2801 43.1074 12.334 45.2203C12.3987 47.7533 12.5262 48.5409 13.1454 50.2336C14.8394 54.8642 19.18 58.3907 24.2206 59.232C25.513 59.4476 28.1076 59.4475 29.3927 59.2318C34.5825 58.3608 39.0065 54.6586 40.6019 49.8516C41.2228 47.9805 41.2687 47.4804 41.2627 42.6474C41.2571 38.2157 41.2552 38.1808 40.9482 37.1001C40.3415 34.9642 39.238 33.158 37.6616 31.7206C36.557 30.7134 35.7026 30.1534 34.3345 29.5398C32.6284 28.7748 31.782 28.6125 29.259 28.5669C28.0432 28.5448 26.9364 28.5731 26.7996 28.6294ZM22.9859 46.2001C23.2128 46.3032 23.5611 46.6393 23.8048 46.9906C24.525 48.0286 25.4695 48.5371 26.6751 48.5358C27.8975 48.5346 28.8174 48.0604 29.5575 47.0499C29.7648 46.7669 30.113 46.4196 30.3314 46.2781C31.4092 45.5794 32.8836 46.3987 32.8836 47.6963C32.8836 48.1066 32.7799 48.3421 32.3074 49.0038C30.2672 51.8614 26.2802 52.6955 23.1931 50.9107C22.3446 50.4201 21.2535 49.3669 20.8394 48.639C20.5663 48.1588 20.5179 47.9563 20.5646 47.4904C20.6236 46.9025 21.0344 46.3365 21.5516 46.1304C21.9371 45.9769 22.5611 46.0072 22.9859 46.2001Z" fill="#CEA36E"/>
</svg>
