<svg width="37" height="37" viewBox="0 0 37 37" fill="none" xmlns="http://www.w3.org/2000/svg">
<g clip-path="url(#clip0_1_357)">
<path d="M18.6781 3.301C23.57 3.301 24.1502 3.31933 26.0817 3.40788C28.0788 3.49949 30.1354 3.95449 31.5905 5.40955C33.0593 6.87836 33.5005 8.91515 33.5921 10.9184C33.6807 12.8498 33.699 13.43 33.699 18.3219C33.699 23.2139 33.6807 23.7941 33.5921 25.7255C33.502 27.7119 33.0364 29.7884 31.5905 31.2343C30.1217 32.7031 28.0864 33.1444 26.0817 33.236C24.1502 33.3246 23.57 33.3429 18.6781 33.3429C13.7861 33.3429 13.2059 33.3246 11.2745 33.236C9.30334 33.1459 7.19937 32.6696 5.76568 31.2343C4.3045 29.7732 3.85562 27.7165 3.76401 25.7255C3.67545 23.7941 3.65713 23.2139 3.65713 18.3219C3.65713 13.43 3.67545 12.8498 3.76401 10.9184C3.85409 8.93958 4.32435 6.85088 5.76568 5.40955C7.23143 3.9438 9.27586 3.49949 11.2745 3.40788C13.2059 3.31933 13.7861 3.301 18.6781 3.301ZM18.6781 0C13.7021 0 13.0777 0.0213756 11.1233 0.109932C8.29105 0.239712 5.47863 1.02756 3.43116 3.07503C1.37605 5.13014 0.595837 7.93646 0.466057 10.7672C0.3775 12.7215 0.356125 13.346 0.356125 18.3219C0.356125 23.2979 0.3775 23.9224 0.466057 25.8767C0.595837 28.7059 1.38673 31.526 3.43116 33.5689C5.48474 35.6224 8.29563 36.4042 11.1233 36.534C13.0777 36.6225 13.7021 36.6439 18.6781 36.6439C23.654 36.6439 24.2785 36.6225 26.2328 36.534C29.0636 36.4042 31.879 35.6148 33.925 33.5689C35.9816 31.5122 36.7603 28.7074 36.8901 25.8767C36.9786 23.9224 37 23.2979 37 18.3219C37 13.346 36.9786 12.7215 36.8901 10.7672C36.7603 7.93493 35.9709 5.12098 33.925 3.07503C31.8744 1.0245 29.0559 0.238185 26.2328 0.109932C24.2785 0.0213756 23.654 0 18.6781 0Z" fill="#CEA36E"/>
<path d="M18.6781 8.91357C13.4823 8.91357 9.26975 13.1261 9.26975 18.3219C9.26975 23.5177 13.4823 27.7302 18.6781 27.7302C23.8739 27.7302 28.0864 23.5177 28.0864 18.3219C28.0864 13.1261 23.8739 8.91357 18.6781 8.91357ZM18.6781 24.4292C15.3053 24.4292 12.5708 21.6947 12.5708 18.3219C12.5708 14.9491 15.3053 12.2146 18.6781 12.2146C22.0508 12.2146 24.7854 14.9491 24.7854 18.3219C24.7854 21.6947 22.0508 24.4292 18.6781 24.4292Z" fill="#CEA36E"/>
<path d="M28.4589 10.7396C29.6732 10.7396 30.6576 9.75519 30.6576 8.54092C30.6576 7.32665 29.6732 6.34229 28.4589 6.34229C27.2447 6.34229 26.2603 7.32665 26.2603 8.54092C26.2603 9.75519 27.2447 10.7396 28.4589 10.7396Z" fill="#CEA36E"/>
</g>
<defs>
<clipPath id="clip0_1_357">
<rect width="36.6439" height="36.6439" fill="white" transform="translate(0.356125)"/>
</clipPath>
</defs>
</svg>
