<svg width="37" height="38" viewBox="0 0 37 38" fill="none" xmlns="http://www.w3.org/2000/svg">
<path d="M29.6193 30.1408H25.0281V22.951C25.0281 21.2364 24.9976 19.0301 22.6402 19.0301C20.2492 19.0301 19.8827 20.8974 19.8827 22.8273V30.1408H15.2931V15.355H19.701V17.375H19.7621C20.6614 15.839 22.3318 14.9214 24.1105 14.9871C28.7643 14.9871 29.6208 18.0484 29.6208 22.0288L29.6193 30.1408ZM10.1126 13.3335C8.64069 13.3335 7.44824 12.1411 7.44824 10.6692C7.44824 9.19733 8.64069 8.00487 10.1126 8.00487C11.5844 8.00487 12.7769 9.19733 12.7769 10.6692C12.7769 12.1411 11.5844 13.3335 10.1126 13.3335ZM12.4074 30.1408H7.81163V15.355H12.4074V30.1408ZM31.908 3.74197H5.50459C4.25717 3.72823 3.2342 4.7283 3.21893 5.97572V32.4876C3.2342 33.7365 4.25717 34.7366 5.50459 34.7228H31.908C33.1585 34.7381 34.1861 33.738 34.2029 32.4876V5.97419C34.1845 4.72372 33.157 3.72365 31.908 3.74044" fill="#CEA36E"/>
</svg>
