<svg width="35" height="35" viewBox="0 0 35 35" fill="none" xmlns="http://www.w3.org/2000/svg">
<g clip-path="url(#clip0_1_378)">
<path d="M17.5 0C13.6336 0.00424608 9.92672 1.54206 7.19274 4.27605C4.45875 7.01003 2.92093 10.7169 2.91669 14.5833C2.91669 22.2863 15.1667 32.8606 16.5579 34.0419L17.5 34.8381L18.4421 34.0419C19.8334 32.8606 32.0834 22.2863 32.0834 14.5833C32.0791 10.7169 30.5413 7.01003 27.8073 4.27605C25.0733 1.54206 21.3665 0.00424608 17.5 0V0ZM17.5 21.875C16.0579 21.875 14.6481 21.4474 13.449 20.6461C12.2499 19.8449 11.3153 18.7061 10.7634 17.3737C10.2115 16.0414 10.0671 14.5752 10.3485 13.1608C10.6298 11.7464 11.3243 10.4471 12.344 9.42735C13.3638 8.40759 14.663 7.71312 16.0775 7.43177C17.4919 7.15042 18.958 7.29482 20.2904 7.84671C21.6228 8.3986 22.7616 9.33319 23.5628 10.5323C24.364 11.7314 24.7917 13.1412 24.7917 14.5833C24.7894 16.5165 24.0204 18.3698 22.6535 19.7368C21.2865 21.1037 19.4332 21.8727 17.5 21.875V21.875Z" fill="#CEA36E"/>
<path d="M17.5 18.9585C19.9162 18.9585 21.875 16.9997 21.875 14.5835C21.875 12.1673 19.9162 10.2085 17.5 10.2085C15.0838 10.2085 13.125 12.1673 13.125 14.5835C13.125 16.9997 15.0838 18.9585 17.5 18.9585Z" fill="#CEA36E"/>
</g>
<defs>
<clipPath id="clip0_1_378">
<rect width="35" height="35" fill="white"/>
</clipPath>
</defs>
</svg>
