<svg width="47" height="63" viewBox="0 0 47 63" fill="none" xmlns="http://www.w3.org/2000/svg">
<path fill-rule="evenodd" clip-rule="evenodd" d="M14.1552 0.465335C11.2622 0.89436 8.78175 2.12913 7.27439 3.8907C6.18052 5.169 5.27433 7.30107 5.11171 8.97926L5.03135 9.80768L7.79914 12.948C10.9036 16.4704 10.4971 16.1706 13.3996 17.0785C16.5229 18.0555 19.4503 18.6759 22.4835 19.0036C24.4097 19.2117 30.0658 19.0582 31.9409 18.7468C37.1139 17.8879 40.4003 15.3937 41.6033 11.4131C42.4126 8.73518 42.3428 5.47086 41.4192 2.80967C41.2736 2.3904 41.1066 2.01892 41.0478 1.98405C40.9891 1.9493 40.4238 2.08695 39.7917 2.29006C37.9725 2.87441 36.3959 3.0557 33.7998 2.97901C30.6722 2.8866 28.1121 2.4505 24.2848 1.35813C23.2124 1.05212 21.8964 0.721604 21.3604 0.623583C20.1872 0.409254 15.2633 0.301114 14.1552 0.465335ZM43.1638 9.56799C43.1279 9.6882 43.0031 10.2528 42.8865 10.8228C42.601 12.2185 42.049 13.5544 41.3145 14.6276C40.688 15.5428 39.5543 16.6999 38.8047 17.1892C38.5704 17.3421 38.3786 17.5222 38.3781 17.5894C38.3776 17.6565 38.6357 17.843 38.9516 18.0036C39.7311 18.4001 40.3537 19.0928 40.8727 20.141C41.6481 21.7064 42.3441 24.9175 42.7126 28.6294L42.8645 30.1601L41.917 31.0686C39.999 32.9077 38.421 35.6845 37.7352 38.4273C37.4679 39.4958 37.4041 41.3307 37.6101 42.0192C37.7441 42.4675 37.6266 42.8094 37.2968 42.9308C37.1773 42.9747 36.0845 42.4484 34.5277 41.5968C28.8697 38.5018 26.2586 37.5297 23.5907 37.5246C20.8328 37.5194 18.0412 38.571 12.1414 41.8373C10.0393 43.0012 9.99463 43.019 9.68171 42.8224C9.43886 42.6699 9.38406 42.5595 9.45106 42.3583C9.49938 42.2131 9.56855 41.5933 9.60466 40.9809C9.79106 37.825 7.71433 33.4302 4.80184 30.8171L4.05459 30.1465L4.30393 28.013C4.75009 24.1954 5.39449 21.3919 6.15942 19.9405C6.78728 18.7492 7.75476 17.9762 9.20198 17.5099C10.2845 17.1611 10.2357 17.1917 10.0011 17.0088C9.84141 16.8842 4.38746 10.7172 3.57269 9.73965C3.33327 9.45254 3.32488 9.45168 2.86714 9.65992C2.61246 9.77574 2.16794 10.1161 1.87944 10.4162C0.0609495 12.3079 -0.383565 16.0771 0.465412 22.4048C0.900517 25.6468 1.3594 29.8187 1.37745 30.6952C1.38381 31.0017 1.24318 31.6377 1.05869 32.1366C-0.603025 36.6309 -0.278794 43.9183 1.82184 49.2874C4.86771 57.0728 10.9822 61.6097 19.8101 62.6341C21.2012 62.7957 25.9273 62.7957 27.3185 62.6341C36.0899 61.6161 42.1628 57.1196 45.1795 49.4093C47.309 43.9666 47.6048 36.6683 45.8843 32.0112L45.5108 30.9999L45.7585 28.5007C45.8946 27.126 46.1905 24.6572 46.4159 23.0144C46.7713 20.4243 46.8263 19.663 46.8292 17.2843C46.832 15.0294 46.7904 14.3676 46.5956 13.5659C46.1468 11.7192 45.317 10.3515 44.3093 9.79756C43.5213 9.36415 43.2418 9.30819 43.1638 9.56799ZM24.0941 42.2849C24.4871 42.4283 29.569 45.5382 29.6727 45.6989C29.8536 45.9797 28.512 46.0547 23.5007 46.0438C20.5985 46.0375 18.0809 45.9942 17.9061 45.9475C17.7313 45.901 17.5882 45.8002 17.5882 45.7238C17.5882 45.5632 22.6344 42.4101 23.1159 42.2699C23.572 42.137 23.6933 42.1388 24.0941 42.2849Z" fill="#CEA36E"/>
</svg>
