<svg width="37" height="37" viewBox="0 0 37 37" fill="none" xmlns="http://www.w3.org/2000/svg">
<path d="M36.5126 26.6722C36.2576 25.979 35.7736 25.608 35.2209 25.3011C35.1171 25.24 35.0209 25.1912 34.9399 25.153C34.775 25.0675 34.6071 24.985 34.4391 24.8995C32.7184 23.9865 31.3733 22.8353 30.4404 21.4703C30.1762 21.0855 29.9457 20.6794 29.7533 20.2534C29.6739 20.0259 29.6785 19.8976 29.735 19.7786C29.7915 19.6869 29.8663 19.6091 29.9548 19.5495C30.2511 19.3541 30.5564 19.1556 30.7625 19.0212C31.1305 18.7815 31.4237 18.5937 31.6115 18.4594C32.3184 17.9647 32.8131 17.4394 33.1215 16.8531C33.5582 16.0332 33.6147 15.0637 33.2803 14.1965C32.8115 12.9643 31.6481 12.1994 30.2388 12.1994C29.9411 12.1994 29.6449 12.2314 29.3548 12.2925C29.2769 12.3093 29.1991 12.3276 29.1243 12.3475C29.1365 11.5047 29.1181 10.6161 29.0433 9.73965C28.7777 6.66156 27.6997 5.04923 26.576 3.76212C25.8568 2.95595 25.0094 2.27346 24.0674 1.74365C22.3635 0.77106 20.429 0.276367 18.3219 0.276367C16.2149 0.276367 14.2911 0.77106 12.5841 1.74365C11.6405 2.27499 10.7901 2.95901 10.071 3.7667C8.94721 5.05229 7.86927 6.6692 7.6036 9.74423C7.52879 10.6191 7.51047 11.5138 7.52268 12.3505C7.44634 12.3307 7.37 12.3139 7.29366 12.2956C7.00203 12.233 6.70583 12.2024 6.4081 12.2024C4.99731 12.2024 3.83233 12.9674 3.36513 14.1995C3.0277 15.0668 3.08419 16.0378 3.51933 16.8593C3.82928 17.4471 4.32245 17.9708 5.0309 18.4655C5.2187 18.5968 5.51185 18.7861 5.87981 19.0274C6.0783 19.1571 6.36992 19.3465 6.65544 19.5343C6.75621 19.5984 6.84019 19.6839 6.90431 19.7847C6.96386 19.9083 6.96539 20.0396 6.87683 20.2824C6.68751 20.6992 6.46153 21.0977 6.20197 21.4733C5.29046 22.8108 3.98502 23.9407 2.31925 24.8461C1.43674 25.3148 0.519116 25.6263 0.131302 26.6798C-0.161849 27.4753 0.0290044 28.3792 0.77257 29.1411C1.04435 29.4251 1.3604 29.6648 1.70852 29.8495C2.43223 30.2465 3.20175 30.5549 3.99876 30.7656C4.16366 30.8084 4.31939 30.8786 4.46139 30.9733C4.73164 31.2099 4.69347 31.5672 5.0538 32.0894C5.23549 32.3596 5.46451 32.5932 5.73171 32.778C6.48749 33.3001 7.33793 33.3322 8.23876 33.3673C9.05256 33.3979 9.97477 33.4345 11.0283 33.7811C11.465 33.9246 11.9184 34.204 12.4436 34.5308C13.7048 35.3064 15.4317 36.366 18.3204 36.366C21.2092 36.366 22.9482 35.3003 24.2186 34.5216C24.7407 34.201 25.1911 33.9246 25.6156 33.7842C26.6691 33.436 27.5913 33.4009 28.4051 33.3704C29.3059 33.3368 30.1564 33.3032 30.9122 32.781C31.2282 32.5612 31.4924 32.2726 31.6832 31.9382C31.9428 31.497 31.9351 31.1885 32.1794 30.9733C32.3123 30.8832 32.4588 30.816 32.6146 30.7748C33.4238 30.5625 34.204 30.2526 34.9369 29.8495C35.3064 29.6526 35.6392 29.3915 35.9202 29.08L35.9293 29.0678C36.6225 28.3257 36.7981 27.4478 36.5126 26.6722ZM34.4911 27.5532C34.4453 27.6952 34.288 27.8616 33.9445 28.0524C32.3779 28.9181 31.3366 28.825 30.5274 29.3472C30.2266 29.5411 30.135 29.8327 30.0862 30.1289C30.0648 30.2511 30.0526 30.3747 30.0342 30.4923C29.9961 30.7381 29.9381 30.958 29.7472 31.0893C29.1334 31.5138 27.318 31.0603 24.9728 31.8344C23.0383 32.4741 21.8046 34.3124 18.3265 34.3124C14.8469 34.3124 13.6422 32.4772 11.6757 31.8298C9.33503 31.0557 7.51657 31.5092 6.89973 31.0862C6.40046 30.7427 6.8066 29.7869 6.11952 29.3441C5.30878 28.8235 4.26748 28.9151 2.70248 28.0555C2.19863 27.7776 2.0948 27.5532 2.15588 27.3791C2.15588 27.3745 2.1574 27.3715 2.16046 27.3669C2.22611 27.2005 2.44139 27.0798 2.60324 27.002C5.26297 25.7149 6.87531 24.098 7.84026 22.7131C8.03417 22.4352 8.20059 22.168 8.34564 21.9131C9.0205 20.7252 9.20372 19.8366 9.22204 19.6992C9.2709 19.319 9.32434 19.0182 8.90446 18.6319C8.49985 18.2563 6.70125 17.1432 6.20197 16.7951C5.86149 16.5569 5.50879 16.2714 5.31947 15.8912C4.90722 15.0652 5.55307 14.2606 6.40351 14.2606C6.55467 14.2606 6.70583 14.2789 6.85393 14.311C7.75934 14.5079 8.64032 14.9614 9.14875 15.0836C9.48466 15.1645 9.70452 15.0118 9.68467 14.6621C9.62665 13.6697 9.48618 11.7383 9.64192 9.93203C9.71826 9.04495 9.8969 8.14412 10.2236 7.30436C10.5382 6.49667 11.0405 5.776 11.6069 5.1271C12.065 4.6034 14.2102 2.33606 18.3174 2.33606C21.5237 2.33606 23.5391 3.71479 24.4857 4.56676C25.9958 5.95464 26.8264 7.89524 26.9974 9.92135C27.1531 11.7276 27.0188 13.6605 26.9546 14.6515C26.9333 14.9889 27.1699 15.1553 27.4905 15.0744C28.0005 14.9507 28.88 14.4973 29.7869 14.3003C30.4556 14.1552 31.2313 14.3598 31.4145 15.0958C31.5657 15.7263 31.1992 16.2546 30.4404 16.7844C29.9411 17.1326 28.1425 18.2441 27.7379 18.6197C27.318 19.0075 27.373 19.3068 27.4218 19.6885C27.4447 19.8656 27.7318 21.2489 28.9532 22.9147C28.9548 22.9162 28.9548 22.9177 28.9563 22.9177C29.0067 22.9864 29.0586 23.0567 29.1136 23.1269C29.3884 23.4842 29.7075 23.8537 30.0755 24.2247C31.0282 25.1835 32.3138 26.1576 34.0406 26.9913C34.1826 27.06 34.346 27.1455 34.4391 27.2768C34.4956 27.3547 34.5246 27.4585 34.4911 27.5532Z" fill="#CEA36E"/>
</svg>
