<svg width="83" height="60" viewBox="0 0 83 60" fill="none" xmlns="http://www.w3.org/2000/svg">
<path fill-rule="evenodd" clip-rule="evenodd" d="M12.7969 1.2254C11.8168 2.2031 11.4525 4.06309 11.8154 6.23717C11.9527 7.05929 13.4626 11.4746 16.1726 18.9787C18.4538 25.2946 20.5737 31.2001 20.8837 32.1022C21.5107 33.9266 22.0304 34.9783 22.8091 35.9986C23.5802 37.0088 24.3864 37.4338 25.9279 37.643C27.5781 37.867 28.9225 38.463 30.0281 39.4606L30.8818 40.2309L32.4816 39.3372C33.3613 38.8457 34.1003 38.4253 34.1236 38.403C34.1612 38.3671 27.8704 26.8835 17.0619 7.25758C15.1283 3.74657 13.4785 0.852265 13.3959 0.825902C13.3131 0.799539 13.0436 0.979392 12.7969 1.2254ZM37.2524 2.27928C34.1563 7.80182 26.8891 21.1491 26.8891 21.3126C26.8891 21.5424 31.3325 29.7235 31.4598 29.728C31.5544 29.7312 39.2944 8.23463 39.6103 7.09099C39.8924 6.06993 39.8922 3.27106 39.6098 2.50798C39.3826 1.89402 38.4929 0.783203 38.2283 0.783203C38.1528 0.783203 37.7137 1.45636 37.2524 2.27928ZM27.155 28.7466C28.037 29.1292 28.838 30.0594 29.0816 30.9837C29.5844 32.8914 27.8873 34.9099 25.7804 34.9099C24.7835 34.9099 24.0083 34.5591 23.2625 33.7703C20.8767 31.2472 23.9064 27.3369 27.155 28.7466ZM24.8429 30.4269C24.1783 30.9145 23.9789 31.975 24.4349 32.5972C24.5749 32.7881 24.9562 33.0284 25.2824 33.1313C26.9151 33.6461 28.1174 31.671 26.855 30.5475C26.4357 30.1741 25.2817 30.105 24.8429 30.4269ZM18.5196 36.3083C17.9051 37.4334 17.4406 38.3905 17.4876 38.4353C17.5347 38.4803 18.2748 38.899 19.1324 39.3658L20.6919 40.2148L21.724 39.316L22.7561 38.4174L21.9559 37.62C21.5158 37.1814 20.8422 36.2467 20.4588 35.5428C20.0755 34.8389 19.7339 34.263 19.6995 34.263C19.6652 34.263 19.1343 35.1834 18.5196 36.3083ZM14.992 41.209L13.6752 42.4484L14.6123 42.8194C15.9753 43.3591 17.2735 44.3441 18.1849 45.5303C18.6246 46.1024 19.042 46.5124 19.1128 46.4415C19.2743 46.2793 21.0008 42.3259 20.9309 42.2782C20.4483 41.9478 16.5891 39.9301 16.4716 39.9468C16.382 39.9594 15.7162 40.5274 14.992 41.209ZM32.8987 41.0529C31.7814 41.6736 30.8002 42.2043 30.7181 42.2323C30.5737 42.2815 32.1934 46.1706 32.4758 46.4524C32.5528 46.5293 32.8222 46.2801 33.0742 45.8987C33.8233 44.7649 35.1629 43.6616 36.5666 43.0221L37.8645 42.4307L36.4819 41.1789C35.7215 40.4904 35.0613 39.9264 35.0147 39.9257C34.9682 39.9249 34.016 40.4321 32.8987 41.0529ZM8.45832 43.9757C6.29486 44.1447 4.77485 44.8486 3.09351 46.46C1.71943 47.777 1.03281 48.8483 0.389353 50.6794C-0.476032 53.1423 0.110033 55.4275 2.05884 57.1884C4.33285 59.2431 7.92203 59.9242 10.3922 58.7694C12.1184 57.9624 14.4055 55.1865 16.8224 50.9644C18.1357 48.6699 18.1477 48.4904 17.0917 46.9293C16.035 45.3674 14.5108 44.3831 12.5339 43.9859C11.5556 43.7892 10.8662 43.7874 8.45832 43.9757ZM38.8167 44.0311C36.4728 44.5752 34.7075 46.0276 33.7617 48.1904L33.5081 48.7704L34.6963 50.8571C37.2124 55.2758 39.5673 58.1049 41.3595 58.8624C41.7863 59.0427 42.6622 59.2326 43.3062 59.284C47.4887 59.6191 51.2664 56.8173 51.5512 53.1692C51.6306 52.1509 51.5771 51.7811 51.1903 50.6794C50.2541 48.0131 48.3363 45.8138 45.9749 44.6988C44.8913 44.1872 44.5142 44.0999 42.8002 43.9645C40.3878 43.7738 39.889 43.7822 38.8167 44.0311ZM11.9073 46.8622C13.8638 47.688 14.4568 49.8126 13.3234 51.9353C12.8604 52.8022 11.4848 54.1805 10.4481 54.8162C8.81805 55.8155 6.58214 56.1925 4.98629 55.7369C3.99766 55.4547 2.95825 54.4126 2.70416 53.4488C2.1467 51.3333 3.92081 48.6366 6.74414 47.3083C8.77827 46.3513 10.3709 46.2136 11.9073 46.8622ZM42.932 46.6372C45.796 47.2822 48.1743 49.3104 48.8101 51.6498C49.1787 53.0055 48.9315 53.9701 47.9837 54.8742C45.1639 57.5642 38.7378 54.843 37.7264 50.5304C37.2307 48.4172 38.9679 46.5384 41.5322 46.4145C41.7184 46.4055 42.3483 46.5057 42.932 46.6372Z" fill="#CEA36E"/>
<path d="M61.6388 3.88821C61.8684 3.68361 62.2755 3.45232 62.5437 3.37453C62.812 3.29673 67.3231 3.24595 72.5684 3.26163L82.1054 3.2901L82.5139 3.74394C82.8535 4.12111 82.9224 4.37196 82.9224 5.23095C82.9224 6.08978 82.8535 6.3408 82.514 6.71797L82.1056 7.17181L74.7205 7.25268C68.4033 7.3219 67.3122 7.36864 67.1751 7.57615C67.0761 7.72592 67.0138 16.8033 67.0121 31.3112C67.0096 54.5896 67.0126 54.8065 67.3481 55.127C67.6759 55.4402 67.9124 55.4505 74.7828 55.4505C78.6857 55.4505 82.0023 55.4958 82.153 55.551C82.6051 55.7168 82.9224 56.5107 82.9224 57.4766C82.9224 58.2669 82.8572 58.449 82.4275 58.8595L81.9327 59.3322H72.3101C63.2697 59.3322 62.6518 59.3141 62.0976 59.0327C61.7732 58.868 61.3365 58.4933 61.1269 58.2002L60.746 57.667V31.4004C60.746 2.97132 60.6888 4.73604 61.6388 3.88821Z" fill="#CEA36E"/>
<path d="M68.8717 16.4717V15.5013V14.5309H75.6311C83.0568 14.5309 82.9224 14.5129 82.9224 15.5037C82.9224 16.4632 82.8572 16.4717 75.5207 16.4717H68.8717Z" fill="#CEA36E"/>
<path d="M68.8717 24.3969V23.4265V22.456H75.6311C83.0568 22.456 82.9224 22.4381 82.9224 23.4289C82.9224 24.3883 82.8572 24.3969 75.5207 24.3969H68.8717Z" fill="#CEA36E"/>
<path d="M68.8717 32.322V31.3516V30.3812H75.6311C83.0568 30.3812 82.9224 30.3632 82.9224 31.354C82.9224 32.3135 82.8572 32.322 75.5207 32.322H68.8717Z" fill="#CEA36E"/>
<path d="M68.8717 40.2472V39.2768V38.3063H75.7218C82.3211 38.3063 82.5784 38.3178 82.7471 38.6191C83.037 39.1367 82.9513 39.7243 82.546 39.9953C82.2212 40.2129 81.2647 40.2472 75.5207 40.2472H68.8717Z" fill="#CEA36E"/>
<path d="M68.8717 48.1723V47.2019V46.2315H75.7218C82.3211 46.2315 82.5784 46.243 82.7471 46.5443C83.037 47.0618 82.9513 47.6494 82.546 47.9205C82.2212 48.138 81.2647 48.1723 75.5207 48.1723H68.8717Z" fill="#CEA36E"/>
</svg>
