<svg width="116" height="116" viewBox="0 0 116 116" fill="none" xmlns="http://www.w3.org/2000/svg">
<circle opacity="0.12" cx="58" cy="58" r="58" fill="white"/>
<circle opacity="0.12" cx="58" cy="58" r="49" fill="white"/>
<path d="M55.6252 67.3481L66.1627 57.9906L55.6252 48.6331V67.3481Z" fill="white"/>
<path d="M57.5 22C50.0832 22 42.833 24.1108 36.6661 28.0655C30.4993 32.0201 25.6928 37.6411 22.8545 44.2174C20.0162 50.7938 19.2736 58.0303 20.7206 65.0117C22.1675 71.9932 25.739 78.406 30.9835 83.4394C36.228 88.4727 42.9098 91.9005 50.1841 93.2892C57.4584 94.6779 64.9984 93.9651 71.8506 91.2411C78.7029 88.5171 84.5596 83.9041 88.6801 77.9855C92.8007 72.067 95 65.1086 95 57.9904C95 53.264 94.03 48.584 92.1455 44.2174C90.2609 39.8509 87.4987 35.8833 84.0165 32.5413C80.5343 29.1993 76.4003 26.5483 71.8506 24.7396C67.3009 22.9309 62.4246 22 57.5 22V22ZM72.5 62.2372L58.85 74.366C57.6576 75.4019 56.1084 75.9787 54.5 75.9855C53.6074 75.9835 52.7254 75.7995 51.9125 75.4457C50.8065 75.0163 49.8589 74.2802 49.191 73.3314C48.523 72.3826 48.1649 71.2642 48.1625 70.1191V45.8616C48.1649 44.7165 48.523 43.5982 49.191 42.6494C49.8589 41.7006 50.8065 40.9644 51.9125 40.535C53.0519 40.0427 54.3169 39.8825 55.5503 40.0745C56.7837 40.2665 57.9312 40.8021 58.85 41.6147L72.5 53.7435C73.1139 54.283 73.604 54.9392 73.9394 55.6703C74.2747 56.4014 74.4479 57.1915 74.4479 57.9904C74.4479 58.7892 74.2747 59.5793 73.9394 60.3104C73.604 61.0416 73.1139 61.6977 72.5 62.2372V62.2372Z" fill="white"/>
</svg>
