<svg width="38" height="27" viewBox="0 0 38 27" fill="none" xmlns="http://www.w3.org/2000/svg">
<path d="M36.3558 4.44489C35.9344 2.85852 34.6931 1.60804 33.1159 1.18358C30.2592 0.414063 18.8004 0.414062 18.8004 0.414062C18.8004 0.414062 7.34152 0.414063 4.4833 1.18358C2.90761 1.60804 1.6663 2.85699 1.24489 4.44489C0.478424 7.32144 0.478424 13.3219 0.478424 13.3219C0.478424 13.3219 0.478424 19.3223 1.24489 22.1989C1.6663 23.7852 2.90761 25.0357 4.48482 25.4602C7.34152 26.2297 18.8004 26.2297 18.8004 26.2297C18.8004 26.2297 30.2592 26.2297 33.1174 25.4602C34.6931 25.0357 35.9344 23.7868 36.3574 22.1989C37.1223 19.3223 37.1223 13.3219 37.1223 13.3219C37.1223 13.3219 37.1223 7.32144 36.3558 4.44489ZM15.0535 18.7711V7.87262L24.6298 13.3219L15.0535 18.7711Z" fill="#CEA36E"/>
</svg>
